<svg width="37" height="49" viewBox="0 0 37 49" fill="none" xmlns="http://www.w3.org/2000/svg">
<path fill-rule="evenodd" clip-rule="evenodd" d="M36 10V48C36 48.5523 35.5523 49 35 49H1C0.447715 49 0 48.5523 0 48V2C0 1.44772 0.447715 1 1 1H27" fill="#D4D4D4"/>
<path fill-rule="evenodd" clip-rule="evenodd" d="M1 2H27L35 10V48H1V2Z" fill="white"/>
<path fill-rule="evenodd" clip-rule="evenodd" d="M5.5 16C5.22386 16 5 16.2239 5 16.5C5 16.7761 5.22386 17 5.5 17H16.5C16.7761 17 17 16.7761 17 16.5C17 16.2239 16.7761 16 16.5 16H5.5ZM5.5 22C5.22386 22 5 22.2239 5 22.5C5 22.7761 5.22386 23 5.5 23H30.5C30.7761 23 31 22.7761 31 22.5C31 22.2239 30.7761 22 30.5 22H5.5ZM5 20.5C5 20.2239 5.22386 20 5.5 20H30.5C30.7761 20 31 20.2239 31 20.5C31 20.7761 30.7761 21 30.5 21H5.5C5.22386 21 5 20.7761 5 20.5ZM5.5 24C5.22386 24 5 24.2239 5 24.5C5 24.7761 5.22386 25 5.5 25H30.5C30.7761 25 31 24.7761 31 24.5C31 24.2239 30.7761 24 30.5 24H5.5ZM5 33.5C5 33.2239 5.22386 33 5.5 33H30.5C30.7761 33 31 33.2239 31 33.5C31 33.7761 30.7761 34 30.5 34H5.5C5.22386 34 5 33.7761 5 33.5ZM5.5 35C5.22386 35 5 35.2239 5 35.5C5 35.7761 5.22386 36 5.5 36H30.5C30.7761 36 31 35.7761 31 35.5C31 35.2239 30.7761 35 30.5 35H5.5ZM5 37.5C5 37.2239 5.22386 37 5.5 37H15.5C15.7761 37 16 37.2239 16 37.5C16 37.7761 15.7761 38 15.5 38H5.5C5.22386 38 5 37.7761 5 37.5ZM5.5 39C5.22386 39 5 39.2239 5 39.5C5 39.7761 5.22386 40 5.5 40H15.5C15.7761 40 16 39.7761 16 39.5C16 39.2239 15.7761 39 15.5 39H5.5ZM6 27H16C16.5523 27 17 27.4477 17 28V30C17 30.5523 16.5523 31 16 31H6C5.44772 31 5 30.5523 5 30V28C5 27.4477 5.44772 27 6 27ZM6 30V28H16V30H6ZM20 27H30C30.5523 27 31 27.4477 31 28V30C31 30.5523 30.5523 31 30 31H20C19.4477 31 19 30.5523 19 30V28C19 27.4477 19.4477 27 20 27ZM20 30V28H30V30H20ZM20 37H30C30.5523 37 31 37.4477 31 38V39C31 39.5523 30.5523 40 30 40H20C19.4477 40 19 39.5523 19 39V38C19 37.4477 19.4477 37 20 37ZM20 39V38H30V39H20Z" fill="#D4D4D4"/>
<path fill-rule="evenodd" clip-rule="evenodd" d="M35.7071 9.29289L27.7071 1.29289C27.0771 0.662927 26 1.10909 26 2V10C26 10.5523 26.4477 11 27 11H35C35.8909 11 36.3371 9.92286 35.7071 9.29289ZM27 10V2L35 10H27Z" fill="#D4D4D4"/>
</svg>
